IDResults
version=1
nRows=26
nColumns=18
inDegrees=yes
endheader
time	ground_thorax_rot_x	ground_thorax_rot_y	ground_thorax_rot_z	ground_thorax_tx	ground_thorax_ty	ground_thorax_tz	clav_prot	clav_elev	scapula_abduction	scapula_elevation	scapula_upward_rot	scapula_winging	plane_elv	shoulder_elv	axial_rot	elbow_flexion	pro_sup
      2.26000000	      9.52992779	     18.84329518	      5.31970460	     -0.14588297	      0.04984388	     -0.00444531	    -33.70582702	      3.84536586	      3.58622766	     -6.29031331	     71.35912696	      4.50421574	     11.00000000	     72.29170831	    -34.42295234	     36.24463201	      5.15400000
      2.28000000	      9.52992779	     18.65438685	      5.62433926	     -0.14576164	      0.04998533	     -0.00448404	    -33.85715023	      3.75326450	      3.50243675	     -6.34954352	     71.53618331	      4.51141096	     11.00000000	     72.62291942	    -34.54305714	     36.33580189	      5.15400000
      2.30000000	      9.52992779	     18.17430831	      5.58830744	     -0.14485331	      0.04985836	     -0.00432656	    -33.96781954	      3.50594272	      3.51003223	     -6.50580521	     71.69296870	      4.57118408	     11.00000000	     72.99340356	    -35.54990363	     36.72631920	      5.15400000
      2.32000000	      9.52992779	     17.80849629	      5.82120789	     -0.14433210	      0.04955150	     -0.00430310	    -33.97311160	      3.51835377	      3.50314391	     -6.49790077	     71.69876657	      4.56688423	     11.00000000	     73.32799785	    -35.99257396	     36.96039701	      5.15400000
      2.34000000	      9.52992779	     17.39223348	      6.15133843	     -0.14377783	      0.04904603	     -0.00429031	    -33.88047620	      3.67870238	      3.54565011	     -6.39424259	     71.60436440	      4.53393427	     11.00000000	     73.60052118	    -36.41350416	     37.20342839	      5.15400000
      2.36000000	      9.52992779	     16.89021821	      6.57032271	     -0.14313596	      0.04825988	     -0.00427458	    -33.66593536	      4.00077467	      3.68314126	     -6.18354374	     71.41271439	      4.47615869	     11.00000000	     73.82915088	    -36.83305207	     37.40753854	      5.15400000
      2.38000000	      9.52992779	     16.38501342	      7.07250447	     -0.14248381	      0.04716388	     -0.00430716	    -33.38795942	      4.50553414	      3.83529000	     -5.85471433	     71.15862241	      4.38093601	     11.00000000	     74.00959622	    -37.18878954	     37.53279503	      5.15400000
      2.40000000	      9.52992779	     15.36144554	      7.69985843	     -0.14142420	      0.04613628	     -0.00401192	    -32.64429385	      4.94760908	      4.55980791	     -5.54764110	     70.58446216	      4.38153373	     11.00000000	     74.31669896	    -37.55992887	     37.68570279	      5.15400000
      2.42000000	      9.52992779	     14.56798388	      8.40315155	     -0.14055651	      0.04473547	     -0.00392285	    -31.97693551	      5.66526209	      5.07113369	     -5.06971690	     70.00551070	      4.29796226	     11.00000000	     74.53883454	    -37.90889514	     37.72909739	      5.15400000
      2.44000000	      9.52992779	     14.13989897	      9.05813038	     -0.13983209	      0.04303382	     -0.00410057	    -31.61375231	      6.55223759	      5.18650774	     -4.49351094	     69.64404220	      4.14636864	     11.00000000	     74.57476052	    -38.15089064	     37.61282800	      5.15400000
      2.46000000	      9.52992779	     12.82578245	      9.94363217	     -0.13863038	      0.04174804	     -0.00366826	    -30.34506488	      7.24596716	      6.34456773	     -4.00735793	     68.57223421	      4.15730184	     11.00000000	     74.99268784	    -38.51619233	     37.65810322	      5.15400000
      2.48000000	      9.52992779	     11.98004060	     10.75030395	     -0.13772266	      0.04032519	     -0.00351036	    -29.45102154	      8.03993728	      7.04223963	     -3.46858540	     67.77067714	      4.10377146	     11.00000000	     75.21211415	    -38.73084848	     37.51579762	      5.15400000
      2.50000000	      9.52992779	     11.53777369	     11.25719911	     -0.13680364	      0.03881274	     -0.00361609	    -28.99275706	      8.72875024	      7.28434090	     -3.01195867	     67.31360218	      4.03472885	     11.00000000	     75.42451068	    -38.51955810	     37.13851134	      5.15400000
      2.52000000	      9.52992779	     10.24770410	     12.15779210	     -0.13584746	      0.03798881	     -0.00302306	    -27.60158197	      9.29535433	      8.63402646	     -2.59294145	     66.16405586	      4.06103220	     11.00000000	     75.64845366	    -39.00151077	     37.05095839	      5.15400000
      2.54000000	      9.52992779	      9.53095432	     12.66067233	     -0.13502356	      0.03710703	     -0.00275150	    -26.80145732	      9.73336180	      9.35484075	     -2.27895283	     65.47477513	      4.05118112	     11.00000000	     75.84954370	    -39.05584148	     36.75669792	      5.15400000
      2.56000000	      9.52992779	      9.03195269	     12.97093413	     -0.13436224	      0.03650292	     -0.00252422	    -26.21560386	     10.03319071	      9.88001043	     -2.06180764	     64.96322964	      4.04274421	     11.00000000	     75.96046155	    -39.09745363	     36.46873625	      5.15400000
      2.58000000	      9.52992779	      8.93648609	     12.99606524	     -0.13386886	      0.03606643	     -0.00243199	    -26.05827750	     10.24105081	      9.95654515	     -1.92180443	     64.79399843	      4.02688735	     11.00000000	     75.91914337	    -39.13485804	     36.22150409	      5.15400000
      2.60000000	      9.52992779	      8.95773927	     12.86508530	     -0.13355437	      0.03610305	     -0.00227419	    -26.01255788	     10.24213351	      9.93777696	     -1.92061364	     64.69644153	      4.02601728	     11.00000000	     75.80396051	    -39.12293139	     36.17951095	      5.15400000
      2.62000000	      9.52992779	      9.02566648	     12.52798154	     -0.13342897	      0.03629801	     -0.00209139	    -26.01753400	     10.01858703	     10.00816215	     -2.06483540	     64.72288765	      4.04766835	     11.00000000	     75.72788237	    -39.05844685	     35.85584397	      5.15400000
      2.64000000	      9.52992779	      9.15400758	     11.88679645	     -0.13322262	      0.03685441	     -0.00179300	    -26.23294788	      9.49609383	      9.95430585	     -2.41030024	     64.95260109	      4.09671462	     11.00000000	     75.59039300	    -38.76048386	     35.72013948	      5.15400000
      2.66000000	      9.52992779	      9.47580393	     11.26498973	     -0.13357074	      0.03785267	     -0.00150402	    -26.45395061	      8.85919621	      9.83579149	     -2.83141229	     65.11192721	      4.16358255	     11.00000000	     75.35828459	    -38.55080489	     35.69001766	      5.15400000
      2.68000000	      9.52992779	     10.65122714	     10.08386756	     -0.13393833	      0.03846881	     -0.00167539	    -27.77094017	      8.21640245	      8.52869970	     -3.30073439	     66.14999617	      4.18813653	     11.00000000	     74.69120725	    -38.12268319	     35.60013631	      5.15400000
      2.70000000	      9.52992779	     11.00023107	      9.25070637	     -0.13447483	      0.03992347	     -0.00122669	    -28.01969805	      7.23055159	      8.38323363	     -3.94905360	     66.26054373	      4.32632185	     11.00000000	     74.39817920	    -37.86728876	     35.77847978	      5.15400000
      2.72000000	      9.52992779	     12.14948004	      7.93975774	     -0.13508989	      0.04085142	     -0.00122129	    -29.32043204	      6.22268584	      7.16200739	     -4.65026164	     67.26515868	      4.41872107	     11.00000000	     73.59928369	    -37.23861580	     35.70037434	      5.15400000
      2.74000000	      9.52992779	     12.60691054	      6.92176346	     -0.13568883	      0.04231735	     -0.00070519	    -29.82665227	      4.97050872	      6.83378434	     -5.47689958	     67.61129212	      4.64547825	     11.00000000	     73.02218262	    -36.63176180	     35.73387261	      5.15400000
      2.76000000	      9.52992779	     13.20704915	      5.92423335	     -0.13640468	      0.04367540	     -0.00024659	    -30.40163316	      3.76861096	      6.29645588	     -6.27851949	     67.89372728	      4.88222469	     11.00000000	     72.36400192	    -35.99413445	     35.84783291	      5.15400000
